<svg xmlns="http://www.w3.org/2000/svg" width="112.136" height="28.138" viewBox="0 0 112.136 28.138">
  <g id="Group_907" data-name="Group 907" transform="translate(-49 -28.799)">
    <g id="Group_896" data-name="Group 896" transform="translate(-209.483 -2)">
      <path id="Path_5" data-name="Path 5" d="M13.615,0l5.864,12.118,7.752,16.02H0Z" transform="translate(258.483 30.799)" fill="#ff6f00"/>
    </g>
    <path id="Path_3629" data-name="Path 3629" d="M2.432-21.344V0h4.16V-7.9H9.28a7.317,7.317,0,0,0,5.408-1.888,6.861,6.861,0,0,0,1.76-4.768,6.8,6.8,0,0,0-2.176-5.152C12.7-21.088,11.04-21.344,8.64-21.344Zm4.16,3.584h1.44a5.009,5.009,0,0,1,2.944.672,2.94,2.94,0,0,1,1.184,2.432,3.186,3.186,0,0,1-1.152,2.5,4.257,4.257,0,0,1-2.72.672h-1.7ZM18.944,0h3.9V-6.656a4.761,4.761,0,0,1,.768-3.072,3.19,3.19,0,0,1,2.592-1.12,2.935,2.935,0,0,1,1.824.512l.512-3.648a4.8,4.8,0,0,0-1.664-.32,4.246,4.246,0,0,0-2.3.608,4.673,4.673,0,0,0-1.728,1.92v-2.08h-3.9Zm11.52-13.856V0h3.9V-13.856Zm-.384-5.856a2.349,2.349,0,0,0,2.336,2.336,2.349,2.349,0,0,0,2.336-2.336,2.349,2.349,0,0,0-2.336-2.336A2.349,2.349,0,0,0,30.08-19.712Zm21.248,5.856h-13.5v3.328H44.48L36.608,0H50.784V-3.328H43.456ZM53.568,0h3.9V-7.072a5.269,5.269,0,0,1,.544-2.688,2.292,2.292,0,0,1,2.144-1.216,1.962,1.962,0,0,1,1.6.7,4.214,4.214,0,0,1,.64,2.72V0h3.9V-7.072a5.269,5.269,0,0,1,.544-2.688,2.292,2.292,0,0,1,2.144-1.216,1.962,1.962,0,0,1,1.6.7,4.214,4.214,0,0,1,.64,2.72V0h3.9V-8.7a5.823,5.823,0,0,0-.96-3.9,4.4,4.4,0,0,0-3.744-1.7,5.1,5.1,0,0,0-4.448,2.528A4.582,4.582,0,0,0,61.6-14.3a5.1,5.1,0,0,0-4.128,2.016v-1.568h-3.9Z" transform="translate(86 55)" fill="#ff6f00"/>
  </g>
</svg>
